<svg xmlns="http://www.w3.org/2000/svg" width="48" height="32.406" viewBox="0 0 48 32.406"><path d="M83.521,93.963c-.44.025-3.531.2-6.886.364-6.346.327-22.668,1.181-28.649,1.5-1.9.113-5.3.289-7.564.415l-4.121.214v29.855l.666-.063c.352-.038,2.8-.176,5.428-.314s6.672-.364,8.984-.5,8.281-.477,13.257-.754c14.689-.817,17.793-.993,18.76-1.081l.9-.075V93.9Zm-40.147,8.419c.289-.038,1.156-.1,1.923-.138l1.395-.075,1.42,1.772a19.763,19.763,0,0,1,1.37,1.809c-.025.025-.9.088-1.948.138l-1.885.088-1.407-1.759-1.395-1.772Zm6.094,7.778c-.025.025-.892.088-1.935.126l-1.885.1-1.395-1.747-1.382-1.747.39-.075a17.783,17.783,0,0,1,1.923-.163l1.52-.075,1.407,1.772A20.975,20.975,0,0,1,49.469,110.16Zm-.7,8.658-.917,1.206-.653.013c-.364,0-1.8.075-3.192.151l-2.551.151v-2.287l.666-.088c.352-.038,1.018-.075,1.47-.075,1.659-.025,1.583.038,3.217-2.111a21.264,21.264,0,0,0,1.407-1.973c-.013-.025-1.37.038-2.991.138s-3.166.176-3.418.176h-.477v-1.131c0-.8.05-1.156.163-1.181.075-.025,1.985-.138,4.235-.251s4.461-.239,4.938-.289l.842-.075V101.175h.6c.339,0,1.131-.038,1.759-.075l1.156-.088V111l2.136-.088,2.136-.1v2.274l-.779.075c-.44.038-1.9.138-3.242.2s-2.45.151-2.463.163S50.223,116.895,48.765,118.817Zm8.457.628-1.382.075-1.382-2.7c-.754-1.483-1.345-2.714-1.319-2.739s.917-.088,1.948-.138l1.885-.075,1.357,2.626c.741,1.445,1.345,2.651,1.345,2.689A7.9,7.9,0,0,1,57.221,119.446ZM64.66,99.052a11.836,11.836,0,0,1,1.445.616l1.407.653,5.667-.327c3.116-.176,5.7-.289,5.755-.251a10.81,10.81,0,0,1,.075,1.973l-.025,1.91-2.815,1.407c-2.425,1.231-2.764,1.432-2.513,1.52.163.063,1.081.4,2.036.766a6.215,6.215,0,0,0,2.664.641h.9v2.224l-.465.088a12.091,12.091,0,0,1-1.357.075c-.8,0-1.169-.113-4.071-1.181L70.189,108l-3.2,1.558-3.2,1.558-1.244.075-1.244.075v-1.131c0-1.294,0-1.294,1.005-1.294.49,0,.955-.176,2.639-.993a10.183,10.183,0,0,0,1.923-1.055c-.075-.05-.54-.226-1.055-.415a6.015,6.015,0,0,1-1.03-.427,8.741,8.741,0,0,1,1.244-2.124,16.763,16.763,0,0,1,1.96.653c1.055.39,1.985.729,2.048.741A24.923,24.923,0,0,0,72.765,104c2.186-1.043,2.6-1.294,2.6-1.52,0-.251-.05-.264-.9-.214-.5.038-2.614.151-4.7.264l-3.782.214-.892,1.407c-.49.779-.917,1.458-.968,1.5a16.488,16.488,0,0,1-2.89-.955C61.192,104.631,64.17,99.668,64.66,99.052Zm.251,19.765c-.126.176-.477.226-1.835.3a16.609,16.609,0,0,1-1.7.05c-.025-.013.477-1.03,1.118-2.262l1.143-2.224,1.684-.1a12.273,12.273,0,0,1,1.721-.038A46.484,46.484,0,0,1,64.912,118.817Zm7.074-5.177V118.6l-1.156.088c-.628.038-1.42.075-1.759.075h-.6V113.8l-2.664.151c-1.47.075-3.091.163-3.581.2l-.917.05v-1.181c0-1.03.025-1.169.226-1.169.113,0,1.571-.088,3.229-.188s3.166-.188,3.368-.188c.314,0,.339-.038.339-.565,0-.653-.038-.641,2.174-.741l1.345-.063v.565c0,.653-.44.616,3.707.364,1.659-.1,3.141-.188,3.3-.188.264,0,.276.038.276,1.131,0,.8-.05,1.156-.151,1.194s-1.382.113-2.865.188-3.053.163-3.481.2Zm5.441,4.674c-.98.063-1.055.05-1.219-.214a45.347,45.347,0,0,1-2.287-3.946c.05-.063,3.368-.3,3.418-.251.088.1,2.325,3.858,2.387,4.021C79.8,118.139,79.487,118.189,77.427,118.315Z" transform="translate(-36.3 -93.9)" fill="#fff"/></svg>