<svg xmlns="http://www.w3.org/2000/svg" viewBox="0 0 710.22 483.47"><defs><style>.cls-1{fill:none;}.cls-2{fill:#e2cdc4;}</style></defs><title>Hero_1_logo</title><g id="圖層_2" data-name="圖層 2"><g id="圖層_1-2" data-name="圖層 1"><path class="cls-1" d="M242.61,105.83a4.13,4.13,0,0,0,3.17-1.36A5,5,0,0,0,247,101a4.74,4.74,0,0,0-1.31-3.44,4.43,4.43,0,0,0-3.33-1.35,4.1,4.1,0,0,0-3.14,1.33A5,5,0,0,0,238,101a4.83,4.83,0,0,0,1.27,3.48A4.33,4.33,0,0,0,242.61,105.83Z"/><path class="cls-1" d="M246.32,257.43a14.64,14.64,0,0,0-1,6.22c0,3.21.34,5.43,1,6.68a3.06,3.06,0,0,0,2.83,1.89c2,0,3-1.48,3.55-3.68a22.15,22.15,0,0,0,.37-4.89c0-2.94-.34-5-1-6.25a3.25,3.25,0,0,0-2.94-1.86A3.07,3.07,0,0,0,246.32,257.43Z"/><path class="cls-1" d="M355.41,329.9v1.81c2.16,0,4.48,0,6.77-.12l-1.22-.94,2.67-.75Z"/><rect class="cls-1" x="342.81" y="323.88" width="7.09" height="1.69"/><rect class="cls-1" x="355.41" y="323.88" width="7.09" height="1.69"/><path class="cls-1" d="M564.85,471.5h13.54V453H564.85Zm1.22-16.77h11.1v15.08h-11.1Z"/><rect class="cls-1" x="210.03" y="460.4" width="8.61" height="12.4"/><path class="cls-1" d="M455.27,444.71q1.28,11.48,4.42,17.5a49.61,49.61,0,0,0,4.41-17.5Z"/><rect class="cls-1" x="570.83" y="459.81" width="1.54" height="4.92"/><rect class="cls-1" x="651.55" y="458.27" width="8.94" height="1.69"/><path class="cls-1" d="M198.4,115.41c2.78,0,4.16-1.71,4.16-5.12v-9.21a5.4,5.4,0,0,0-1.06-3.61,3.85,3.85,0,0,0-3.1-1.26,4,4,0,0,0-3.13,1.29,5.22,5.22,0,0,0-1.14,3.58v9.1C194.13,113.66,195.55,115.41,198.4,115.41Z"/><path class="cls-1" d="M195.94,255.54c-2.13,0-3.62,1.93-3.62,4.33,0,2.59,1.46,4.45,3.62,4.45s3.81-1.65,3.81-4.39C199.75,257.5,198.23,255.54,195.94,255.54Z"/><path class="cls-1" d="M93.22,444.71q1.27,11.48,4.42,17.5a49.84,49.84,0,0,0,4.42-17.5Z"/><rect class="cls-1" x="210.03" y="443.8" width="8.61" height="11.04"/><rect class="cls-1" x="177.4" y="324.82" width="16.3" height="5.51"/><polygon class="cls-1" points="210.54 154.82 177.32 205.02 210.54 205.02 210.54 154.82"/><rect class="cls-1" x="6" y="259.75" width="8.61" height="11.04"/><path class="cls-1" d="M347,218.76a18.42,18.42,0,0,0,10.14,2.84,23.16,23.16,0,0,0,9.79-2.13,18.22,18.22,0,0,0,7.63-6.69,20.29,20.29,0,0,0,3.06-11.3V173.26a30.64,30.64,0,0,0-1.46-9.81,21.06,21.06,0,0,0-4.06-7.31,17.16,17.16,0,0,0-6.38-4.49,21.77,21.77,0,0,0-8.36-1.55,25.49,25.49,0,0,0-9.91,2.61,16.41,16.41,0,0,0-7,7.4q-2.66,5.16-2.72,13.82v24.79a28.24,28.24,0,0,0,2.42,12A18.5,18.5,0,0,0,347,218.76Z"/><path class="cls-1" d="M33.19,74.87q1.28,11.47,4.42,17.5A49.84,49.84,0,0,0,42,74.87Z"/><rect class="cls-1" x="6" y="276.34" width="8.61" height="12.4"/><rect class="cls-1" x="300.6" y="316.67" width="19.09" height="4.29"/><rect class="cls-1" x="651.55" y="452.41" width="8.94" height="1.69"/><rect class="cls-1" x="650.01" y="470.24" width="12.01" height="1.69"/><rect class="cls-1" x="650.01" y="476.11" width="12.01" height="1.69"/><path class="cls-1" d="M694.23,461.78v3.86h2.84l-2.25-2.17c1-.55,2-1.14,2.84-1.69Z"/><path class="cls-1" d="M688.52,463.94l-2.75,1.7h3.38v-3.86h-3.38A19.85,19.85,0,0,1,688.52,463.94Z"/><rect class="cls-1" x="607.65" y="471.03" width="2.48" height="1.22"/><rect class="cls-1" x="637.85" y="455.32" width="1.1" height="14.92"/><rect class="cls-1" x="683.92" y="474.1" width="15.51" height="1.06"/><path class="cls-1" d="M691.75,452.09c-.9.52-1.81,1-2.79,1.54h5.59C693.6,453.16,692.66,452.65,691.75,452.09Z"/><rect class="cls-1" x="683.92" y="477.96" width="15.51" height="1.06"/><rect class="cls-1" x="615.8" y="465.48" width="2.48" height="1.22"/><path class="cls-1" d="M701.59,463.79a20.27,20.27,0,0,1-3,1.85h3.62v-3.86h-3Z"/><rect class="cls-1" x="607.65" y="465.48" width="2.48" height="1.22"/><rect class="cls-1" x="615.8" y="471.03" width="2.48" height="1.22"/><rect class="cls-1" x="606.11" y="454.89" width="13.86" height="1.06"/><path class="cls-1" d="M684.43,461.78h-3.31v3.86h3.39a17,17,0,0,0-2.76-2.17Z"/><path class="cls-1" d="M699.43,457.17H683.76v-1.1c-1.58.67-3.19,1.3-4.88,1.89h25.78c-1.77-.59-3.5-1.26-5.23-2Z"/><path class="cls-2" d="M523.11,478a11.39,11.39,0,0,1-7.52-3.23,22.8,22.8,0,0,0,1.06-4.17v-5.08h-3.07L516.5,461v-5.24H507V461h3.86l-2.95,4.45v5.08H511c-.44,3.07-2.13,6-4.92,8.93l4,4a18.73,18.73,0,0,0,3.23-4.13,13.67,13.67,0,0,0,9.37,3.38h19.25l1.38-5.08c-2.64.16-5.24.32-7.84.32Z"/><path class="cls-2" d="M528.19,474.57c-1.69-4.17-3.54-8.3-5.55-12.32,1.69-4.45,3.54-8.74,5.24-13.23l-5.08-2c-1.38,4.17-3.39,9.4-5.83,15.39,2,4.45,4.13,9.53,6.14,14.92Z"/><path class="cls-2" d="M543,449.5l-5.08-2c-1.53,4.17-3.54,9.25-6,14.92,2,4.45,4.13,9.37,6.3,14.6l5.08-2.75-5.55-12C539.41,458,541.1,453.63,543,449.5Z"/><path class="cls-2" d="M516,452.88a23.68,23.68,0,0,0-4.14-6.14l-4.76,2.6a38.83,38.83,0,0,1,4,6.14Z"/><path class="cls-2" d="M530.51,477l5-2.75c-1.69-4-3.5-8-5.35-12,1.69-4.29,3.38-8.62,5.08-12.75l-4.92-2c-1.54,4.17-3.55,9.25-6,14.92C526.34,466.86,528.5,471.78,530.51,477Z"/><path class="cls-2" d="M557.6,452.57a36.77,36.77,0,0,0-4.13-5.67L549,449.81a50,50,0,0,1,4.14,5.67Z"/><path class="cls-2" d="M583.47,448h-23.7v28.58h23.7Zm-5.08,23.54H564.85V453h13.54Z"/><path class="cls-2" d="M565,478a12.48,12.48,0,0,1-8.15-2.8,20.94,20.94,0,0,0,1.69-5.08v-4.6H555l3.38-4.92v-4.77h-9.84v4.93h3.86l-3.23,4.92v4.76h3.5a30,30,0,0,1-4.76,9.53l4.17,3.54a18.84,18.84,0,0,0,2.76-4.13,9.9,9.9,0,0,0,7.83,3.38c6.34.16,13.39.16,21.1,0l1.22-5.08C577.76,478,571.15,478.12,565,478Z"/><path class="cls-2" d="M577.17,454.73h-11.1v15.08h11.1Zm-4.8,10h-1.54v-4.92h1.54Z"/><path class="cls-2" d="M624,476.7V461H615.8V460h5.71v-2h4.13V450.4h-9.53a20.07,20.07,0,0,0-2.75-3.38l-5.71,1.41a6.74,6.74,0,0,1,1.85,2h-9.21V458h4.29v2h5.55V461H602V476.7h5.51a80.73,80.73,0,0,1-7.83,2.64l2.48,4.13a51.53,51.53,0,0,0,9.84-3.66l-2.25-3.11h6.42L614,479.81c3.34,1.22,6.61,2.44,9.84,3.66l2.44-4c-2.4-.9-5-1.89-7.8-2.79Zm-13.82-4.45h-2.48V471h2.48Zm0-5.55h-2.48v-1.22h2.48Zm-4-10.75v-1.06H620V456Zm12.17,16.3H615.8V471h2.48Zm0-5.55H615.8v-1.22h2.48Z"/><path class="cls-2" d="M596,466.42l3.5-4a29,29,0,0,0-6.14-6.14l-3.55,4.13A45.29,45.29,0,0,1,596,466.42Z"/><path class="cls-2" d="M596.27,456.58l3.54-4A33.09,33.09,0,0,0,594,446.9l-3.55,3.66A70.87,70.87,0,0,1,596.27,456.58Z"/><path class="cls-2" d="M596,467.33a49.89,49.89,0,0,1-6.19,12.91l4.49,3.23a64.94,64.94,0,0,0,6.62-13.82Z"/><path class="cls-2" d="M632.81,478.71h5v-2.92H639v1.85H644V449.81H632.81Zm5-23.39H639v14.92h-1.1Z"/><path class="cls-2" d="M665.68,448H646.31v16.46h19.37Zm-5.19,12h-8.94v-1.7h8.94Zm0-5.87h-8.94v-1.69h8.94Z"/><path class="cls-2" d="M644.78,483.31H650v-1.06h12v1.06h5.24V465.79H644.78ZM650,470.24h12v1.7H650Zm0,5.87h12v1.69H650Z"/><path class="cls-2" d="M695,449l.79-.59-4.92-1.69A52.21,52.21,0,0,1,673,455.05l1.7,4.29c.47-.16.94-.28,1.41-.44v10.59H707.3v-10.7c.47.15.91.27,1.38.39l1.54-4.29A75.8,75.8,0,0,1,695,449Zm-3.23,3.07c.91.56,1.85,1.07,2.8,1.54H689C689.94,453.12,690.85,452.61,691.75,452.09Zm-10.63,13.55v-3.86h3.31l-2.68,1.69a17,17,0,0,1,2.76,2.17Zm8,0h-3.38l2.75-1.7a19.85,19.85,0,0,0-2.75-2.16h3.38Zm7.92,0h-2.84v-3.86h3.43c-.87.55-1.82,1.14-2.84,1.69Zm5.15,0H698.6a20.27,20.27,0,0,0,3-1.85l-2.36-2h3ZM678.88,458c1.69-.59,3.3-1.22,4.88-1.89v1.1h15.67V456c1.73.75,3.46,1.42,5.23,2Z"/><path class="cls-2" d="M678.52,483.31h5.4v-.43h15.51v.43h5.39V470.24h-26.3Zm5.4-9.21h15.51v1.06H683.92Zm0,3.86h15.51V479H683.92Z"/><path class="cls-2" d="M179.25,275.7V252.06h-3.81c-.51,3.15-2.7,4.7-6.59,4.7h-.33v3.61h5.94V275.7Z"/><path class="cls-2" d="M195.67,272.56a3.37,3.37,0,0,1-3.18-2.94h-4.56c.54,4.19,3.52,6.55,7.67,6.55,5.67,0,9.29-5,9.29-12.39,0-7.87-3.25-12.19-9.06-12.19-4.82,0-8.3,3.65-8.3,8.65a7.94,7.94,0,0,0,1,4,7.2,7.2,0,0,0,6.28,3.69,6.12,6.12,0,0,0,5.33-2.64l.07.07C199.82,270.1,198.23,272.56,195.67,272.56Zm.27-8.24c-2.16,0-3.62-1.86-3.62-4.45,0-2.4,1.49-4.33,3.62-4.33,2.29,0,3.81,2,3.81,4.39C199.75,262.67,198.13,264.32,195.94,264.32Z"/><rect class="cls-2" x="209.68" y="270.5" width="5.3" height="5.2"/><rect class="cls-2" x="209.68" y="258.55" width="5.3" height="5.2"/><path class="cls-2" d="M220.22,259.76h4.56c0-2.66,1.35-4.22,3.64-4.22a3.11,3.11,0,0,1,3.35,3.14c0,1.89-1.46,2.94-4.16,2.94h-.87V265h.74c3,0,4.73.77,4.73,3.51a3.62,3.62,0,0,1-3.85,3.71c-2.47,0-4-1.68-4.16-4.66h-4.56v.27c0,5,3.38,8.34,8.78,8.34,5,0,8.78-3.17,8.78-7.76A5.19,5.19,0,0,0,233,263V263a4.69,4.69,0,0,0,3.31-4.83c0-3.68-3.48-6.55-7.94-6.55C223.56,251.59,220.39,254.77,220.22,259.76Z"/><path class="cls-2" d="M240.55,263.78c0,8.28,2.87,12.39,8.64,12.39s8.71-4.18,8.71-12.39-3-12.19-8.71-12.19S240.55,255.78,240.55,263.78Zm11.55-6.38c.67,1.25,1,3.31,1,6.25a22.15,22.15,0,0,1-.37,4.89c-.51,2.2-1.56,3.68-3.55,3.68a3.06,3.06,0,0,1-2.83-1.89c-.68-1.25-1-3.47-1-6.68a14.64,14.64,0,0,1,1-6.22,3.07,3.07,0,0,1,2.84-1.89A3.25,3.25,0,0,1,252.1,257.4Z"/><path class="cls-2" d="M192.79,304.82l-4.49,3.07c1.42,1.38,2.8,2.6,4.17,4l-15.82,1.38A56.35,56.35,0,0,0,187.4,302.5l-5.71-2.28a54.56,54.56,0,0,1-13.82,13.5l1.69,5.08,27.05-2.28a11.31,11.31,0,0,1,2.52,2.91H171.57v17.36h5.83v-1.06h16.29v1.06h5.87v-17l4.45-3.42A136.53,136.53,0,0,0,192.79,304.82Zm.9,25.51H177.4v-5.51h16.29Z"/><path class="cls-2" d="M225.59,336.51V300.65h-5.51v9.09h-9.84v5.52h9.84v9.09c-3.55,1.38-7.09,2.76-11,4l1.7,5.66c3.22-1.22,6.29-2.44,9.25-3.85v6.33Z"/><path class="cls-2" d="M228.07,300.65V331c0,3.55,1.69,5.4,5.2,5.4h5.23c3.54,0,5.87-1.7,6.62-4.92a32.5,32.5,0,0,0,.94-6.19l-5.39-1.06a21.79,21.79,0,0,1-.79,4.77,2.5,2.5,0,0,1-2.6,2.16h-1.85c-1.22,0-1.85-.63-1.85-2v-9.37a34.47,34.47,0,0,0,12.17-9.41l-4.33-4a43,43,0,0,1-7.84,6.93V300.65Z"/><path class="cls-2" d="M258.27,309.11a69.82,69.82,0,0,1-7.72,17.68l5.24,3.11a71.55,71.55,0,0,0,7.83-18.78Z"/><path class="cls-2" d="M273.94,311.59a134.14,134.14,0,0,1,8.46,18.31l5.24-3.11a86.61,86.61,0,0,0-8.47-17.68Z"/><path class="cls-2" d="M266.42,329.59c0,1.37-.63,2-2,2a33.11,33.11,0,0,1-5.23-.47l.47,5.51c2.6.16,4.6.32,6.3.32,4,0,6-2,6-6V301h-5.51Z"/><path class="cls-2" d="M294.93,335.88h33.34v-5.23H300.6V326.2h24.76V311.44H300.6V307h27.67v-5.24H294.93Zm5.67-19.21h19.09V321H300.6Z"/><path class="cls-2" d="M366.35,337.11l4.76-2.6a28.94,28.94,0,0,0-4.33-4.61H368V319.59H355.41v-2h-5.52v2H337.26V329.9h12.63v1.81c-4.92.16-9.84.16-14.76.16l.59,4.64c10-.15,19.84-.47,29.37-.94Zm-16.46-11.54h-7.08v-1.69h7.08Zm5.52-1.69h7.08v1.69h-7.08Zm6.77,7.71c-2.29.12-4.61.12-6.77.12V329.9h8.22l-2.67.75Z"/><path class="cls-2" d="M340.05,306.52a16.68,16.68,0,0,1-6,8l3.38,4.13a20.31,20.31,0,0,0,4.77-4.92,12.9,12.9,0,0,0,9.41,3.54c6.61,0,12.75,0,18.15-.15l.9-4.45c-5.08.16-10.16.31-15.08.31v-1.38H363v-4.48h-7.4v-1.22h8.62l-.78,3.22,5.39.79,1.22-4.76v-3.7H335.45v4.45h14.44v6.93a10,10,0,0,1-5.39-2.92,7.13,7.13,0,0,0,.91-2.48Z"/><path class="cls-2" d="M177.14,105.94l-9.68,9.17v4.31h17.6v-4.6H174.34l5.57-5a20.45,20.45,0,0,0,4.12-4.7,8.94,8.94,0,0,0,1.14-4.51,8.62,8.62,0,0,0-8.87-8.84,8.5,8.5,0,0,0-6.6,2.65,10.29,10.29,0,0,0-2.43,7.22h4.83a6,6,0,0,1,1.18-3.9,3.73,3.73,0,0,1,3.05-1.48,3.67,3.67,0,0,1,2.84,1.22,4.36,4.36,0,0,1,1.11,3.06,5.23,5.23,0,0,1-.74,2.61A12.59,12.59,0,0,1,177.14,105.94Z"/><path class="cls-2" d="M198.55,119.9a8.52,8.52,0,0,0,6.57-2.52,10,10,0,0,0,2.34-7.06v-9.5a8.5,8.5,0,0,0-9.1-9.1,8.85,8.85,0,0,0-6.66,2.54,9.37,9.37,0,0,0-2.47,6.82v9.24a9.69,9.69,0,0,0,2.48,7A9.09,9.09,0,0,0,198.55,119.9Zm-4.42-18.82a5.22,5.22,0,0,1,1.14-3.58,4,4,0,0,1,3.13-1.29,3.85,3.85,0,0,1,3.1,1.26,5.4,5.4,0,0,1,1.06,3.61v9.21c0,3.41-1.38,5.12-4.16,5.12s-4.27-1.75-4.27-5.23Z"/><polygon class="cls-2" points="219.29 119.42 224.19 119.42 224.19 92.2 215.86 92.2 215.86 96.8 219.29 96.8 219.29 119.42"/><path class="cls-2" d="M240.62,110.18a5.39,5.39,0,0,0,1.07-.11,10.64,10.64,0,0,0,1.14-.34l-6.56,9.69h5.86l7.11-10.68a19.49,19.49,0,0,0,2.1-4,10.87,10.87,0,0,0,.59-3.65,9,9,0,0,0-2.71-6.72,9.32,9.32,0,0,0-6.83-2.67,8.76,8.76,0,0,0-6.67,2.73,9.8,9.8,0,0,0-2.58,7,9.16,9.16,0,0,0,2.14,6.23A6.78,6.78,0,0,0,240.62,110.18Zm-1.37-12.64a4.1,4.1,0,0,1,3.14-1.33,4.43,4.43,0,0,1,3.33,1.35A4.74,4.74,0,0,1,247,101a5,5,0,0,1-1.25,3.47,4.13,4.13,0,0,1-3.17,1.36,4.33,4.33,0,0,1-3.3-1.35A4.83,4.83,0,0,1,238,101,5,5,0,0,1,239.25,97.54Z"/><path class="cls-2" d="M210.54,228.41h8.54v-15.8h7.59V205h-7.59V143.19H208.52L167.65,205v7.59h42.89ZM177.32,205l33.22-50.2V205Z"/><rect class="cls-2" x="239.38" y="212.89" width="9.22" height="15.51"/><path class="cls-2" d="M315.21,220.59h-42.5l30.53-28.78q12-11.35,12-24.06a24.34,24.34,0,0,0-3.71-13.15,26.76,26.76,0,0,0-9.78-9.36,25.5,25.5,0,0,0-12.65-3.4,30.37,30.37,0,0,0-13.54,3.29,24.49,24.49,0,0,0-10.12,9.78,31.28,31.28,0,0,0-3.94,15.93H270q0-10.56,5.87-15.65A21,21,0,0,1,290,150.1a18.07,18.07,0,0,1,8.29,2.61,18.27,18.27,0,0,1,6.24,6.3,16.64,16.64,0,0,1,2.39,8.74q0,8.16-8,16.08l-38,37v7.59h54.19Z"/><path class="cls-2" d="M342.89,226a27.32,27.32,0,0,0,14.48,4,29.38,29.38,0,0,0,10.51-1.92,28.4,28.4,0,0,0,9.19-5.67,27.28,27.28,0,0,0,6.52-9.08,31.17,31.17,0,0,0,2.56-12.12V172A32.42,32.42,0,0,0,384,160.19a29.21,29.21,0,0,0-6-9.61,27.45,27.45,0,0,0-9.16-6.44,28.59,28.59,0,0,0-11.52-2.3,27.58,27.58,0,0,0-13.55,3.62,28,28,0,0,0-10.54,10.4,30.12,30.12,0,0,0-4,15.66V201a29.69,29.69,0,0,0,3.6,14.28A27.91,27.91,0,0,0,342.89,226Zm-5.2-52.06q.06-8.66,2.72-13.82a16.41,16.41,0,0,1,7-7.4,25.49,25.49,0,0,1,9.91-2.61,21.77,21.77,0,0,1,8.36,1.55,17.16,17.16,0,0,1,6.38,4.49,21.06,21.06,0,0,1,4.06,7.31,30.64,30.64,0,0,1,1.46,9.81v28.22a20.29,20.29,0,0,1-3.06,11.3,18.22,18.22,0,0,1-7.63,6.69,23.16,23.16,0,0,1-9.79,2.13,18.14,18.14,0,0,1-17-10.87,28.24,28.24,0,0,1-2.42-12Z"/><path class="cls-2" d="M6,294.47h8.61v2.88h6V265.69l4.64,3.8a73.91,73.91,0,0,0,4.65-9.29h13c-.17,9.57-.45,20.56-1.13,28.83-.23,2.77-1.3,3.23-3.51,3.23a73.08,73.08,0,0,1-10.37-1.08l1.53,6.4a68,68,0,0,0,9.41.68c6.51,0,8.49-2.72,8.89-8.33.62-8.83,1-22,1.19-35.51H32.12c.73-2.21,1.35-4.42,2-6.63l-6-1.53a78.19,78.19,0,0,1-7.47,19V254H12c.74-2,1.47-4.19,2.21-6.4l-6.63-.91A64.15,64.15,0,0,1,5.32,254H0v43.38H6Zm0-34.72h8.61v11H6Zm0,16.59h8.61v12.41H6Z"/><path class="cls-2" d="M39.2,281.44a75.84,75.84,0,0,0-8.44-13.09l-5.1,3.57a61.16,61.16,0,0,1,8.44,13.14Z"/><path class="cls-2" d="M364,465.1l13.54-2.89.39,2.21,5.33-2.21a94.1,94.1,0,0,0-3.35-10.42l-5,2.21c.29.74.63,1.87,1.08,3.34l-4.65.85a132.32,132.32,0,0,0,11.05-17.44l-5-2.67a41.51,41.51,0,0,1-3.57,5.78l-4.19.4a94.15,94.15,0,0,0,6.85-11.73l-5.77-1.75a77.05,77.05,0,0,1-8.16,14.84l1.3,4.87,6.86-.68A70,70,0,0,1,363,460.23Z"/><path class="cls-2" d="M362.05,477.9l5.09,2.66a80.4,80.4,0,0,0,2.21-13l-5.1-.91A58.17,58.17,0,0,1,362.05,477.9Z"/><path class="cls-2" d="M370.26,467.31a72,72,0,0,1,.85,11.05l5.32-1.14a78.53,78.53,0,0,0-1.3-10.82Z"/><path class="cls-2" d="M381.08,464.65l-4.65,1.53a53.87,53.87,0,0,1,2,8.61l4.64-2.21A57.45,57.45,0,0,0,381.08,464.65Z"/><path class="cls-2" d="M401.64,474.79V465.5h9.74V460h-9.74v-6.23h11.5v-5.49h-29.4v5.49h12.18V473a15.22,15.22,0,0,1-5.1-5.32A53,53,0,0,0,391.9,458l-5.5-.45q-.42,13.94-6.63,20.56l4.65,4a34.81,34.81,0,0,0,4.64-8.15q5,6.63,15.24,6.62h9.06l1.59-5.94c-3.85.11-7.08.17-9.74.17Z"/><path class="cls-2" d="M383.51,436.1v10.37h5.78v-4.82h18.35v4.82h5.72V436.1H402.09a51.11,51.11,0,0,0-2.66-6.23l-6.18,1.81a22.52,22.52,0,0,1,2.44,4.42Z"/><path class="cls-2" d="M444,450.26H433.12v-6h13.09v-5.72h-10l3.57-2.21a38.29,38.29,0,0,0-6.23-6.46l-4.88,3.34a35.25,35.25,0,0,1,5.1,5.33H423v5.72h4.42v10.42c0,8.27-1.47,15.75-5.32,22.37l4,5.27A52.51,52.51,0,0,0,432.9,456H438c0,6.35-.22,13-.62,17.62-.17,1.87-.68,2.49-2.21,2.49a35,35,0,0,1-4.87-.4l1.42,5.78a36.4,36.4,0,0,0,4.41.23c4.42,0,6.52-1.36,7-6.86C443.54,469,444,458.25,444,450.26Z"/><path class="cls-2" d="M463.25,467.71c3.69-6.35,5.9-14,6.63-23h3.74V439H456.57a69.28,69.28,0,0,0,2.27-8l-6-.9c-2.21,9.91-5,17.73-8.38,23.45l4.64,5.09c.74-1.47,1.36-2.88,2-4.19A43.29,43.29,0,0,0,456,467.71a36.6,36.6,0,0,1-12.86,9.34l4.19,5a50.49,50.49,0,0,0,12.18-9.74,47.63,47.63,0,0,0,12,9.74l3.8-5.26A37.06,37.06,0,0,1,463.25,467.71Zm-3.56-5.5q-3.15-6-4.42-17.5h8.83A49.61,49.61,0,0,1,459.69,462.21Z"/><path class="cls-2" d="M51.32,446.47V436.1H40a48.15,48.15,0,0,0-2.66-6.23l-6.17,1.81a22.39,22.39,0,0,1,2.43,4.42H21.47v10.37h5.77v-4.82H45.6v4.82Z"/><path class="cls-2" d="M2,465.1l13.54-2.89.4,2.21,5.32-2.21a93.8,93.8,0,0,0-3.34-10.42l-5,2.21c.28.74.62,1.87,1.07,3.34l-4.64.85a132.42,132.42,0,0,0,11-17.44l-5-2.67a39.7,39.7,0,0,1-3.57,5.78l-4.19.4a94.08,94.08,0,0,0,6.86-11.73l-5.78-1.75A76.51,76.51,0,0,1,.45,445.62l1.31,4.87,6.85-.68a70.12,70.12,0,0,1-7.7,10.42Z"/><path class="cls-2" d="M19,464.65l-4.64,1.53a52.83,52.83,0,0,1,2,8.61L21,472.58A57.45,57.45,0,0,0,19,464.65Z"/><path class="cls-2" d="M8.21,467.31a72,72,0,0,1,.85,11.05l5.33-1.14a78.63,78.63,0,0,0-1.31-10.82Z"/><path class="cls-2" d="M0,477.9l5.1,2.66a81.51,81.51,0,0,0,2.21-13l-5.1-.91A58.13,58.13,0,0,1,0,477.9Z"/><path class="cls-2" d="M39.59,474.79V465.5h9.74V460H39.59v-6.23h11.5v-5.49H21.69v5.49H33.87V473a15.4,15.4,0,0,1-5.1-5.32A51.3,51.3,0,0,0,29.85,458l-5.49-.45q-.43,13.94-6.63,20.56l4.64,4A34.47,34.47,0,0,0,27,473.94c3.34,4.42,8.44,6.62,15.23,6.62h9.07l1.58-5.94c-3.85.11-7.08.17-9.74.17Z"/><path class="cls-2" d="M101.21,467.71c3.68-6.35,5.89-14,6.63-23h3.73V439h-17a69.27,69.27,0,0,0,2.26-8l-6-.9c-2.21,9.91-5,17.73-8.39,23.45l4.65,5.09c.74-1.47,1.36-2.88,2-4.19a43.29,43.29,0,0,0,4.87,13.26A36.51,36.51,0,0,1,81,477.05l4.2,5a50.42,50.42,0,0,0,12.17-9.74,47.68,47.68,0,0,0,12,9.74l3.79-5.26A36.92,36.92,0,0,1,101.21,467.71Zm-3.57-5.5q-3.15-6-4.42-17.5h8.84A49.84,49.84,0,0,1,97.64,462.21Z"/><path class="cls-2" d="M82,450.26H71.08v-6H84.16v-5.72h-10l3.57-2.21a38.29,38.29,0,0,0-6.23-6.46l-4.87,3.34a36.26,36.26,0,0,1,5.1,5.33H60.94v5.72h4.42v10.42c0,8.27-1.48,15.75-5.33,22.37l4,5.27A52.6,52.6,0,0,0,70.85,456H76c0,6.35-.23,13-.63,17.62-.17,1.87-.68,2.49-2.2,2.49a35.21,35.21,0,0,1-4.88-.4l1.42,5.78a36.57,36.57,0,0,0,4.42.23c4.42,0,6.51-1.36,7-6.86C81.5,469,82,458.25,82,450.26Z"/><path class="cls-2" d="M243.23,465.5a75.84,75.84,0,0,0-8.44-13.09l-5.1,3.57a61.16,61.16,0,0,1,8.44,13.14Z"/><path class="cls-2" d="M238.13,431.85l-6-1.53a78.19,78.19,0,0,1-7.47,19V438H216c.74-2,1.47-4.19,2.21-6.4l-6.63-.91a64.15,64.15,0,0,1-2.21,7.31H204v43.38h6v-2.88h8.61v2.88h6V449.75l4.64,3.8a73.91,73.91,0,0,0,4.65-9.29h13c-.17,9.57-.45,20.56-1.13,28.83-.23,2.77-1.3,3.23-3.51,3.23A73.08,73.08,0,0,1,232,475.24l1.53,6.4a68,68,0,0,0,9.41.68c6.51,0,8.49-2.72,8.89-8.33.62-8.83,1-22,1.19-35.51H236.15C236.88,436.27,237.5,434.06,238.13,431.85ZM218.64,472.8H210V460.4h8.61Zm0-17.95H210V443.8h8.61Z"/><path class="cls-2" d="M7.31,37.67l-5.1-.91A58.13,58.13,0,0,1,0,48l5.1,2.66A81.51,81.51,0,0,0,7.31,37.67Z"/><path class="cls-2" d="M8.61,19.94A70.12,70.12,0,0,1,.91,30.36L2,35.23l13.54-2.89.4,2.21,5.32-2.21A93.8,93.8,0,0,0,17.9,21.92l-5,2.21c.28.74.62,1.87,1.07,3.34l-4.64.85a132.42,132.42,0,0,0,11-17.44l-5-2.67A40.24,40.24,0,0,1,11.72,14l-4.19.4A94.08,94.08,0,0,0,14.39,2.66L8.61.91A76.51,76.51,0,0,1,.45,15.75l1.31,4.87Z"/><path class="cls-2" d="M9.06,48.48l5.33-1.13a78.45,78.45,0,0,0-1.31-10.82l-4.87.91A72,72,0,0,1,9.06,48.48Z"/><path class="cls-2" d="M27.24,11.78H45.6V16.6h5.72V6.23H40A47.57,47.57,0,0,0,37.38,0L31.21,1.81a22.39,22.39,0,0,1,2.43,4.42H21.47V16.6h5.77Z"/><path class="cls-2" d="M14.39,36.31a52.83,52.83,0,0,1,2,8.61L21,42.71a57.09,57.09,0,0,0-2-7.93Z"/><path class="cls-2" d="M27,44.07c3.34,4.41,8.44,6.62,15.23,6.62h9.07l1.58-5.94c-3.85.11-7.08.17-9.74.17H39.59V35.63h9.74v-5.5H39.59V23.9h11.5V18.41H21.69V23.9H33.87V43.16a15.49,15.49,0,0,1-5.1-5.32,51.3,51.3,0,0,0,1.08-9.69l-5.49-.45q-.43,13.94-6.63,20.56l4.64,4A34.67,34.67,0,0,0,27,44.07Z"/><path class="cls-2" d="M10.82,86.14h5.1c0,6.35-.23,13-.63,17.62-.17,1.87-.68,2.49-2.21,2.49a35.08,35.08,0,0,1-4.87-.4l1.42,5.78a36.46,36.46,0,0,0,4.42.23c4.41,0,6.51-1.36,7-6.86.46-5.83.91-16.59.91-24.58H11v-6H24.13V68.7h-10l3.57-2.21A38.29,38.29,0,0,0,11.5,60L6.63,63.37a35.7,35.7,0,0,1,5.09,5.33H.91v5.72H5.32V84.84c0,8.27-1.47,15.75-5.32,22.37l4,5.27A52.51,52.51,0,0,0,10.82,86.14Z"/><path class="cls-2" d="M41.18,97.87c3.68-6.35,5.89-14,6.62-23h3.74V69.15h-17a67.33,67.33,0,0,0,2.27-8l-6-.9C28.55,70.17,25.71,78,22.37,83.71L27,88.8c.73-1.47,1.36-2.88,2-4.19a43.29,43.29,0,0,0,4.87,13.26A36.6,36.6,0,0,1,21,107.21l4.2,5a50.42,50.42,0,0,0,12.17-9.74,47.81,47.81,0,0,0,11.95,9.74l3.8-5.26A36.92,36.92,0,0,1,41.18,97.87Zm-3.57-5.5q-3.15-6-4.42-17.5H42A49.84,49.84,0,0,1,37.61,92.37Z"/></g></g></svg>