<svg xmlns="http://www.w3.org/2000/svg" width="100.767" height="260.49" viewBox="0 0 100.767 260.49"><g transform="translate(-103.563 -86.643)"><g transform="translate(103.563 86.643)"><path d="M103.563,115.8a22.153,22.153,0,0,0,6.817-3.5,38.938,38.938,0,0,0-5.568-3.212,37.64,37.64,0,0,0,2.535-6.532h-2.82v-3.5H108.6c.357-1.035.714-2.284,1.107-3.784l3.891.714a25.34,25.34,0,0,1-.964,3.07H119.3v3.748a21.776,21.776,0,0,1-3.034,8.674,37.022,37.022,0,0,1,4.176,2.927l-2.677,2.927a36.1,36.1,0,0,0-4.034-2.927,22.057,22.057,0,0,1-7.924,4.712Zm7.96-22.737h-7.532v-3.5h7.532V86.643h3.89V89.57H119.2v3.5h-3.784v2.106h-3.89Zm4.033,9.495h-4.033l-1.821,4.854c1.035.678,2.106,1.32,3.213,1.963A15.212,15.212,0,0,0,115.556,102.563Zm9.066-9.495h-3.784v-3.5h3.784V86.643h3.891V89.57h7.531v3.5h-7.531v2.642h-3.891ZM120.839,97.1h13.671v21.774h-3.891v-2.249h-5.854v2.249h-3.926Zm9.78,16.027V100.6h-5.854v12.529Z" transform="translate(-103.563 -86.643)" fill="#fff"/><path d="M111.774,150.129h-7.532v-3.641h7.532v-3.212h3.89v3.212h3.784v3.641h-3.784v2.5h-3.89Zm17.7,23.844-22.594,1.535-1.107-3.5a40.466,40.466,0,0,0,8.923-7.388H104.242V160.98H136.3v3.641H120.269a50.385,50.385,0,0,1-7.817,6.96l13.814-.964c-1.035-1.035-2.106-2.034-3.213-3.07l3.213-2.106a97.732,97.732,0,0,1,8.923,8.388l-3.641,2.07C130.906,175.258,130.228,174.615,129.478,173.973ZM107.7,154.019h25.129v3.641H107.7Zm17.169-3.89H121.09v-3.641h3.784v-3.212h3.891v3.212H136.3v3.641h-7.531v2.5h-3.891Z" transform="translate(-103.814 -107.587)" fill="#fff"/></g><g transform="translate(103.563 223.38)"><path d="M119.988,303.623v3.615l-11.2,3.547v.045l11.2,3.591v3.613l-15.929-5.287V308.8Z" transform="translate(-103.746 -303.623)" fill="#fff"/><path d="M107.021,329.462c2.119,0,3.257,1.138,3.614,4.73a6.846,6.846,0,0,0,.513,2.431.989.989,0,0,0,.914.514c1.049,0,1.54-.58,1.54-2.03,0-1.339-.514-2.007-1.74-2.119v-3.168c2.521.156,3.859,2.208,3.859,5.443-.023,3.369-1.115,5.042-3.279,5.042H106.33a5.552,5.552,0,0,0-2.455.4v-3.213a4.73,4.73,0,0,1,1.115-.222,5.173,5.173,0,0,1-1.428-3.882C103.563,330.979,104.857,329.462,107.021,329.462Zm1.272,7.674h1.226a3.64,3.64,0,0,1-.557-1.919c-.2-1.785-.647-2.588-1.807-2.588C105.192,332.63,104.835,337.136,108.293,337.136Z" transform="translate(-103.563 -313.179)" fill="#fff"/><path d="M119.988,352.823v3.168H104.059v-3.168Z" transform="translate(-103.746 -321.818)" fill="#fff"/><path d="M106.352,363.855a6.5,6.5,0,0,1,3.279-.8,6.017,6.017,0,0,1,5.377,2.99,6.135,6.135,0,0,1,.714,2.9,5.247,5.247,0,0,1-2.945,4.908,7.215,7.215,0,0,1-3.324.714c-.112,0-.312,0-.58-.023V366.22c-1.851.067-2.923.937-2.923,2.811a2.662,2.662,0,0,0,1.495,2.521v2.789a5.126,5.126,0,0,1-3.882-5.4A5.582,5.582,0,0,1,106.352,363.855Zm4.529,7.519c1.718-.291,2.454-1.049,2.454-2.543a2.469,2.469,0,0,0-2.454-2.61Z" transform="translate(-103.563 -325.601)" fill="#fff"/><path d="M115.593,386.378v3.011h-1.606v.067A3.892,3.892,0,0,1,115.905,393c0,2.945-1.427,4.194-4.663,4.194h-7.183V394.03H110.6c1.9,0,2.811-.536,2.811-2.03,0-1.718-.959-2.453-3.346-2.453h-6v-3.168Z" transform="translate(-103.746 -334.227)" fill="#fff"/><path d="M119.988,433.877v3.5h-6.113v6.447h6.113v3.5H104.059v-3.5h6.872V437.38h-6.872v-3.5Z" transform="translate(-103.746 -351.793)" fill="#fff"/><path d="M107.624,460.813v3.012c-1.182,0-1.942,1.026-1.942,2.431,0,1.183.558,2.075,1.473,2.075.6,0,.96-.513,1.25-1.405a15.486,15.486,0,0,0,.512-2.075,5.368,5.368,0,0,1,1.606-3.3,2.346,2.346,0,0,1,1.495-.469,3.277,3.277,0,0,1,3.279,2.231,7.721,7.721,0,0,1,.424,2.788c0,3.1-1.272,4.886-3.681,5.087v-3.012c1.093-.089,1.562-.8,1.562-2.163,0-1.183-.357-1.763-1.071-1.763-.536,0-.87.379-1.138,1.182a9.107,9.107,0,0,0-.335,1.294,14.024,14.024,0,0,1-.87,3.056,2.693,2.693,0,0,1-2.61,1.718c-2.588,0-4.016-2.03-4.016-5.265C103.563,462.843,105.125,460.88,107.624,460.813Z" transform="translate(-103.563 -361.754)" fill="#fff"/><path d="M108.248,482.829h7.161V486h-6.536c-1.785,0-2.811.446-2.811,2.03,0,1.763.982,2.454,3.279,2.454h6.068v3.168H103.876v-3.012h1.606v-.067a3.9,3.9,0,0,1-1.919-3.547C103.563,484.011,105.058,482.829,108.248,482.829Z" transform="translate(-103.563 -369.896)" fill="#fff"/></g><g transform="translate(172.134 86.643)"><path d="M212.374,91.1h5.14a22.85,22.85,0,0,0-2.642-2.82l3.355-1.642a27.376,27.376,0,0,1,3.5,3.177L219.334,91.1H224.9v3.462H212.374Zm.964,5.283h10.743v3.5H213.338Zm0,5.282h10.743v3.5H213.338Zm0,5.462h10.743V119.41h-3.641v-1.285h-3.462v1.285h-3.641Zm7.1,7.531v-4.069h-3.462v4.069Zm12.565-7.674h-7.96v-3.641h7.96v-8.21h-2.356a28.749,28.749,0,0,1-2.677,5.711l-3.212-2.356a47.3,47.3,0,0,0,4.6-11.743l3.784.714A28.83,28.83,0,0,1,231.9,91.5h11.279v3.641h-6.425v8.21h7.817v3.641h-7.817V119.41h-3.748Z" transform="translate(-212.374 -86.643)" fill="#fff"/></g></g></svg>